<mxfile host="app.diagrams.net" modified="2023-05-25T16:22:45.864Z" agent="Mozilla/5.0 (Windows NT 10.0; Win64; x64) AppleWebKit/537.36 (KHTML, like Gecko) Chrome/113.0.0.0 Safari/537.36" etag="hkS_Lmgog8K1eWWG4X0G" version="21.3.4" type="github" pages="3">
  <diagram name="Summary" id="IKh3nL40RzK3kSDg4t4r">
    <mxGraphModel dx="1434" dy="796" grid="0" gridSize="10" guides="1" tooltips="1" connect="1" arrows="1" fold="1" page="1" pageScale="1" pageWidth="850" pageHeight="1100" math="0" shadow="0">
      <root>
        <mxCell id="0" />
        <mxCell id="1" parent="0" />
        <mxCell id="YuGBkWrWiaTABAZO744--4" style="edgeStyle=orthogonalEdgeStyle;rounded=0;orthogonalLoop=1;jettySize=auto;html=1;entryX=0;entryY=0.5;entryDx=0;entryDy=0;" parent="1" source="YuGBkWrWiaTABAZO744--1" target="YuGBkWrWiaTABAZO744--2" edge="1">
          <mxGeometry relative="1" as="geometry" />
        </mxCell>
        <mxCell id="YuGBkWrWiaTABAZO744--1" value="Input" style="rounded=1;whiteSpace=wrap;html=1;fillColor=#ffe6cc;strokeColor=#d79b00;sketch=1;curveFitting=1;jiggle=2;" parent="1" vertex="1">
          <mxGeometry x="120" y="200" width="120" height="60" as="geometry" />
        </mxCell>
        <mxCell id="YuGBkWrWiaTABAZO744--5" style="edgeStyle=orthogonalEdgeStyle;rounded=0;orthogonalLoop=1;jettySize=auto;html=1;" parent="1" source="YuGBkWrWiaTABAZO744--2" target="YuGBkWrWiaTABAZO744--3" edge="1">
          <mxGeometry relative="1" as="geometry" />
        </mxCell>
        <mxCell id="YuGBkWrWiaTABAZO744--2" value="Computer" style="rounded=1;whiteSpace=wrap;html=1;fillColor=#dae8fc;strokeColor=#6c8ebf;sketch=1;curveFitting=1;jiggle=2;" parent="1" vertex="1">
          <mxGeometry x="320" y="200" width="120" height="60" as="geometry" />
        </mxCell>
        <mxCell id="YuGBkWrWiaTABAZO744--3" value="Input" style="rounded=1;whiteSpace=wrap;html=1;fillColor=#d5e8d4;strokeColor=#82b366;sketch=1;curveFitting=1;jiggle=2;" parent="1" vertex="1">
          <mxGeometry x="520" y="200" width="120" height="60" as="geometry" />
        </mxCell>
        <mxCell id="YuGBkWrWiaTABAZO744--25" value="Financial Institution" style="ellipse;whiteSpace=wrap;html=1;aspect=fixed;fillColor=#dae8fc;strokeColor=#6c8ebf;sketch=1;curveFitting=1;jiggle=2;" parent="1" vertex="1">
          <mxGeometry x="160" y="360" width="90" height="90" as="geometry" />
        </mxCell>
        <mxCell id="YuGBkWrWiaTABAZO744--26" value="Retailers" style="ellipse;whiteSpace=wrap;html=1;aspect=fixed;fillColor=#dae8fc;strokeColor=#6c8ebf;sketch=1;curveFitting=1;jiggle=2;" parent="1" vertex="1">
          <mxGeometry x="425" y="390" width="90" height="90" as="geometry" />
        </mxCell>
        <mxCell id="YuGBkWrWiaTABAZO744--28" value="Customers" style="ellipse;whiteSpace=wrap;html=1;aspect=fixed;fillColor=#dae8fc;strokeColor=#6c8ebf;sketch=1;curveFitting=1;jiggle=2;" parent="1" vertex="1">
          <mxGeometry x="300" y="330" width="90" height="90" as="geometry" />
        </mxCell>
        <mxCell id="YuGBkWrWiaTABAZO744--29" value="Digital Wallet &amp;amp; Mobile Payments" style="ellipse;whiteSpace=wrap;html=1;aspect=fixed;fillColor=#dae8fc;strokeColor=#6c8ebf;sketch=1;curveFitting=1;jiggle=2;" parent="1" vertex="1">
          <mxGeometry x="130" y="570" width="100" height="100" as="geometry" />
        </mxCell>
        <mxCell id="YuGBkWrWiaTABAZO744--30" value="Ecommerce Platform" style="ellipse;whiteSpace=wrap;html=1;aspect=fixed;fillColor=#dae8fc;strokeColor=#6c8ebf;sketch=1;curveFitting=1;jiggle=2;" parent="1" vertex="1">
          <mxGeometry x="480" y="510" width="90" height="90" as="geometry" />
        </mxCell>
        <mxCell id="YuGBkWrWiaTABAZO744--31" value="Payment Processor" style="ellipse;whiteSpace=wrap;html=1;aspect=fixed;fillColor=#dae8fc;strokeColor=#6c8ebf;sketch=1;curveFitting=1;jiggle=2;" parent="1" vertex="1">
          <mxGeometry x="110" y="460" width="90" height="90" as="geometry" />
        </mxCell>
        <mxCell id="YuGBkWrWiaTABAZO744--32" value="Government" style="ellipse;whiteSpace=wrap;html=1;aspect=fixed;fillColor=#dae8fc;strokeColor=#6c8ebf;sketch=1;curveFitting=1;jiggle=2;" parent="1" vertex="1">
          <mxGeometry x="260" y="640" width="90" height="90" as="geometry" />
        </mxCell>
        <mxCell id="YuGBkWrWiaTABAZO744--33" value="Regulator" style="ellipse;whiteSpace=wrap;html=1;aspect=fixed;fillColor=#dae8fc;strokeColor=#6c8ebf;sketch=1;curveFitting=1;jiggle=2;" parent="1" vertex="1">
          <mxGeometry x="400" y="620" width="90" height="90" as="geometry" />
        </mxCell>
        <mxCell id="YuGBkWrWiaTABAZO744--34" value="Visa" style="ellipse;whiteSpace=wrap;html=1;aspect=fixed;fillColor=#ffe6cc;strokeColor=#d79b00;sketch=1;curveFitting=1;jiggle=2;" parent="1" vertex="1">
          <mxGeometry x="290" y="480" width="90" height="90" as="geometry" />
        </mxCell>
        <mxCell id="YuGBkWrWiaTABAZO744--35" value="" style="endArrow=none;html=1;rounded=0;" parent="1" edge="1">
          <mxGeometry width="50" height="50" relative="1" as="geometry">
            <mxPoint x="200" y="800" as="sourcePoint" />
            <mxPoint x="200" y="1078" as="targetPoint" />
            <Array as="points">
              <mxPoint x="200" y="870" />
            </Array>
          </mxGeometry>
        </mxCell>
        <mxCell id="YuGBkWrWiaTABAZO744--36" value="" style="endArrow=classic;html=1;rounded=0;" parent="1" edge="1">
          <mxGeometry width="50" height="50" relative="1" as="geometry">
            <mxPoint x="200" y="1080" as="sourcePoint" />
            <mxPoint x="520" y="1080" as="targetPoint" />
          </mxGeometry>
        </mxCell>
        <mxCell id="YuGBkWrWiaTABAZO744--37" value="Merchant Category" style="text;html=1;strokeColor=none;fillColor=none;align=center;verticalAlign=middle;whiteSpace=wrap;rounded=0;fontStyle=1" parent="1" vertex="1">
          <mxGeometry x="290" y="1100" width="125" height="30" as="geometry" />
        </mxCell>
        <mxCell id="YuGBkWrWiaTABAZO744--38" value="Risk Score" style="text;html=1;strokeColor=none;fillColor=none;align=center;verticalAlign=middle;whiteSpace=wrap;rounded=0;flipH=1;flipV=0;direction=south;labelPosition=center;verticalLabelPosition=middle;horizontal=0;fontStyle=1" parent="1" vertex="1">
          <mxGeometry x="140" y="880" width="30" height="130" as="geometry" />
        </mxCell>
        <mxCell id="YuGBkWrWiaTABAZO744--39" value="C1" style="text;html=1;strokeColor=none;fillColor=none;align=center;verticalAlign=middle;whiteSpace=wrap;rounded=0;" parent="1" vertex="1">
          <mxGeometry x="240" y="1080" height="30" as="geometry" />
        </mxCell>
        <mxCell id="YuGBkWrWiaTABAZO744--40" value="C2" style="text;html=1;strokeColor=none;fillColor=none;align=center;verticalAlign=middle;whiteSpace=wrap;rounded=0;" parent="1" vertex="1">
          <mxGeometry x="316" y="1078" height="30" as="geometry" />
        </mxCell>
        <mxCell id="YuGBkWrWiaTABAZO744--41" value="C3" style="text;html=1;strokeColor=none;fillColor=none;align=center;verticalAlign=middle;whiteSpace=wrap;rounded=0;" parent="1" vertex="1">
          <mxGeometry x="398" y="1076" height="30" as="geometry" />
        </mxCell>
        <mxCell id="YuGBkWrWiaTABAZO744--42" value="C4" style="text;html=1;strokeColor=none;fillColor=none;align=center;verticalAlign=middle;whiteSpace=wrap;rounded=0;" parent="1" vertex="1">
          <mxGeometry x="475" y="1074" height="30" as="geometry" />
        </mxCell>
        <mxCell id="YuGBkWrWiaTABAZO744--43" value="1" style="text;html=1;strokeColor=none;fillColor=none;align=center;verticalAlign=middle;whiteSpace=wrap;rounded=0;" parent="1" vertex="1">
          <mxGeometry x="180" y="1020" height="30" as="geometry" />
        </mxCell>
        <mxCell id="YuGBkWrWiaTABAZO744--44" value="2" style="text;html=1;strokeColor=none;fillColor=none;align=center;verticalAlign=middle;whiteSpace=wrap;rounded=0;" parent="1" vertex="1">
          <mxGeometry x="180" y="980" height="30" as="geometry" />
        </mxCell>
        <mxCell id="YuGBkWrWiaTABAZO744--46" value="3" style="text;html=1;strokeColor=none;fillColor=none;align=center;verticalAlign=middle;whiteSpace=wrap;rounded=0;" parent="1" vertex="1">
          <mxGeometry x="180" y="940" height="30" as="geometry" />
        </mxCell>
        <mxCell id="YuGBkWrWiaTABAZO744--47" value="8" style="text;html=1;strokeColor=none;fillColor=none;align=center;verticalAlign=middle;whiteSpace=wrap;rounded=0;" parent="1" vertex="1">
          <mxGeometry x="180" y="830" height="30" as="geometry" />
        </mxCell>
        <mxCell id="YuGBkWrWiaTABAZO744--48" value="" style="ellipse;whiteSpace=wrap;html=1;aspect=fixed;fillColor=#d5e8d4;strokeColor=#82b366;" parent="1" vertex="1">
          <mxGeometry x="250" y="960" width="35" height="35" as="geometry" />
        </mxCell>
        <mxCell id="YuGBkWrWiaTABAZO744--49" value="" style="ellipse;whiteSpace=wrap;html=1;aspect=fixed;fillColor=#e51400;strokeColor=#B20000;fontColor=#ffffff;" parent="1" vertex="1">
          <mxGeometry x="445" y="880" width="35" height="35" as="geometry" />
        </mxCell>
        <mxCell id="YuGBkWrWiaTABAZO744--51" value="" style="ellipse;whiteSpace=wrap;html=1;aspect=fixed;fillColor=#d5e8d4;strokeColor=#82b366;" parent="1" vertex="1">
          <mxGeometry x="230" y="905" width="35" height="35" as="geometry" />
        </mxCell>
        <mxCell id="YuGBkWrWiaTABAZO744--52" value="" style="ellipse;whiteSpace=wrap;html=1;aspect=fixed;fillColor=#d5e8d4;strokeColor=#82b366;" parent="1" vertex="1">
          <mxGeometry x="304" y="960" width="35" height="35" as="geometry" />
        </mxCell>
        <mxCell id="YuGBkWrWiaTABAZO744--53" value="" style="ellipse;whiteSpace=wrap;html=1;aspect=fixed;fillColor=#e51400;strokeColor=#B20000;fontColor=#ffffff;" parent="1" vertex="1">
          <mxGeometry x="455" y="830" width="35" height="35" as="geometry" />
        </mxCell>
        <mxCell id="YuGBkWrWiaTABAZO744--54" value="" style="ellipse;whiteSpace=wrap;html=1;aspect=fixed;fillColor=#e51400;strokeColor=#B20000;fontColor=#ffffff;" parent="1" vertex="1">
          <mxGeometry x="380.5" y="860" width="35" height="35" as="geometry" />
        </mxCell>
        <mxCell id="YuGBkWrWiaTABAZO744--55" value="" style="ellipse;whiteSpace=wrap;html=1;aspect=fixed;fillColor=#d5e8d4;strokeColor=#82b366;" parent="1" vertex="1">
          <mxGeometry x="304" y="1005" width="35" height="35" as="geometry" />
        </mxCell>
        <mxCell id="YuGBkWrWiaTABAZO744--56" value="" style="ellipse;whiteSpace=wrap;html=1;aspect=fixed;fillColor=#e51400;strokeColor=#B20000;fontColor=#ffffff;" parent="1" vertex="1">
          <mxGeometry x="390" y="927.5" width="35" height="35" as="geometry" />
        </mxCell>
        <mxCell id="YuGBkWrWiaTABAZO744--57" value="" style="ellipse;whiteSpace=wrap;html=1;aspect=fixed;fillColor=#d5e8d4;strokeColor=#82b366;" parent="1" vertex="1">
          <mxGeometry x="225" y="1015" width="35" height="35" as="geometry" />
        </mxCell>
        <mxCell id="K4tFfpsqINqM7Y34j97c-1" value="" style="endArrow=none;html=1;rounded=0;" parent="1" edge="1">
          <mxGeometry width="50" height="50" relative="1" as="geometry">
            <mxPoint x="706" y="813" as="sourcePoint" />
            <mxPoint x="734" y="844" as="targetPoint" />
          </mxGeometry>
        </mxCell>
        <mxCell id="K4tFfpsqINqM7Y34j97c-3" value="Neural Network" style="text;html=1;strokeColor=none;fillColor=none;align=center;verticalAlign=middle;whiteSpace=wrap;rounded=0;" parent="1" vertex="1">
          <mxGeometry x="755" y="958" width="95" height="30" as="geometry" />
        </mxCell>
        <mxCell id="K4tFfpsqINqM7Y34j97c-4" value="" style="endArrow=none;html=1;rounded=0;" parent="1" edge="1">
          <mxGeometry width="50" height="50" relative="1" as="geometry">
            <mxPoint x="726" y="916" as="sourcePoint" />
            <mxPoint x="726" y="884" as="targetPoint" />
          </mxGeometry>
        </mxCell>
        <mxCell id="K4tFfpsqINqM7Y34j97c-5" value="" style="endArrow=none;html=1;rounded=0;" parent="1" edge="1">
          <mxGeometry width="50" height="50" relative="1" as="geometry">
            <mxPoint x="736" y="926" as="sourcePoint" />
            <mxPoint x="692" y="926" as="targetPoint" />
          </mxGeometry>
        </mxCell>
        <mxCell id="K4tFfpsqINqM7Y34j97c-6" value="" style="endArrow=none;html=1;rounded=0;" parent="1" edge="1">
          <mxGeometry width="50" height="50" relative="1" as="geometry">
            <mxPoint x="717" y="895" as="sourcePoint" />
            <mxPoint x="673" y="893" as="targetPoint" />
          </mxGeometry>
        </mxCell>
        <mxCell id="K4tFfpsqINqM7Y34j97c-7" value="Support Vector" style="text;html=1;strokeColor=none;fillColor=none;align=center;verticalAlign=middle;whiteSpace=wrap;rounded=0;" parent="1" vertex="1">
          <mxGeometry x="755" y="820" width="95" height="30" as="geometry" />
        </mxCell>
        <mxCell id="K4tFfpsqINqM7Y34j97c-8" value="" style="curved=1;endArrow=none;html=1;rounded=0;endFill=0;" parent="1" edge="1">
          <mxGeometry width="50" height="50" relative="1" as="geometry">
            <mxPoint x="669" y="966" as="sourcePoint" />
            <mxPoint x="723" y="945" as="targetPoint" />
            <Array as="points">
              <mxPoint x="740" y="1011" />
              <mxPoint x="734" y="975" />
              <mxPoint x="690" y="961" />
            </Array>
          </mxGeometry>
        </mxCell>
        <mxCell id="K4tFfpsqINqM7Y34j97c-10" value="Decision Tree" style="text;html=1;strokeColor=none;fillColor=none;align=center;verticalAlign=middle;whiteSpace=wrap;rounded=0;" parent="1" vertex="1">
          <mxGeometry x="765" y="895" width="95" height="30" as="geometry" />
        </mxCell>
        <mxCell id="K4tFfpsqINqM7Y34j97c-11" value="Algorithm" style="text;html=1;strokeColor=none;fillColor=none;align=center;verticalAlign=middle;whiteSpace=wrap;rounded=0;fontStyle=1" parent="1" vertex="1">
          <mxGeometry x="703" y="745" width="136" height="30" as="geometry" />
        </mxCell>
      </root>
    </mxGraphModel>
  </diagram>
  <diagram id="f4nPETrMEtfVDZXPr_Hg" name="Algorithim">
    <mxGraphModel dx="584" dy="796" grid="0" gridSize="10" guides="1" tooltips="1" connect="1" arrows="1" fold="1" page="1" pageScale="1" pageWidth="850" pageHeight="1100" math="0" shadow="0">
      <root>
        <mxCell id="0" />
        <mxCell id="1" parent="0" />
        <mxCell id="qPTurpKYU6WXjvwjlFdN-32" style="edgeStyle=orthogonalEdgeStyle;rounded=0;orthogonalLoop=1;jettySize=auto;html=1;" parent="1" source="qPTurpKYU6WXjvwjlFdN-31" edge="1">
          <mxGeometry relative="1" as="geometry">
            <mxPoint x="1219" y="791" as="targetPoint" />
          </mxGeometry>
        </mxCell>
        <mxCell id="qPTurpKYU6WXjvwjlFdN-31" value="" style="ellipse;whiteSpace=wrap;html=1;aspect=fixed;" parent="1" vertex="1">
          <mxGeometry x="914" y="693" width="196" height="196" as="geometry" />
        </mxCell>
        <mxCell id="qPTurpKYU6WXjvwjlFdN-14" style="edgeStyle=orthogonalEdgeStyle;rounded=0;orthogonalLoop=1;jettySize=auto;html=1;entryX=0;entryY=0.5;entryDx=0;entryDy=0;" parent="1" source="qPTurpKYU6WXjvwjlFdN-6" target="qPTurpKYU6WXjvwjlFdN-8" edge="1">
          <mxGeometry relative="1" as="geometry" />
        </mxCell>
        <mxCell id="qPTurpKYU6WXjvwjlFdN-6" value="" style="rounded=1;whiteSpace=wrap;html=1;" parent="1" vertex="1">
          <mxGeometry x="979.5" y="443" width="156" height="81" as="geometry" />
        </mxCell>
        <mxCell id="qPTurpKYU6WXjvwjlFdN-4" value="" style="image;html=1;image=img/lib/clip_art/finance/Credit_Card_128x128.png" parent="1" vertex="1">
          <mxGeometry x="999" y="459.5" width="69" height="55" as="geometry" />
        </mxCell>
        <mxCell id="qPTurpKYU6WXjvwjlFdN-5" value="" style="image;html=1;image=img/lib/clip_art/finance/Dollar_128x128.png" parent="1" vertex="1">
          <mxGeometry x="1066" y="468" width="52" height="31" as="geometry" />
        </mxCell>
        <mxCell id="qPTurpKYU6WXjvwjlFdN-7" value="Data : &lt;br&gt;- Customer Payment &lt;br&gt;- Saving&lt;br&gt;- Default(Y/N)" style="text;html=1;strokeColor=none;fillColor=none;align=center;verticalAlign=middle;whiteSpace=wrap;rounded=0;" parent="1" vertex="1">
          <mxGeometry x="996" y="533" width="117" height="57" as="geometry" />
        </mxCell>
        <mxCell id="qPTurpKYU6WXjvwjlFdN-16" style="edgeStyle=orthogonalEdgeStyle;rounded=0;orthogonalLoop=1;jettySize=auto;html=1;entryX=0.16;entryY=0.55;entryDx=0;entryDy=0;entryPerimeter=0;" parent="1" source="qPTurpKYU6WXjvwjlFdN-8" target="qPTurpKYU6WXjvwjlFdN-15" edge="1">
          <mxGeometry relative="1" as="geometry" />
        </mxCell>
        <mxCell id="qPTurpKYU6WXjvwjlFdN-8" value="Model" style="icon;html=1;image=img/clipart/Gear_128x128.png" parent="1" vertex="1">
          <mxGeometry x="1224" y="444" width="91" height="79" as="geometry" />
        </mxCell>
        <mxCell id="qPTurpKYU6WXjvwjlFdN-15" value="Will default" style="ellipse;shape=cloud;whiteSpace=wrap;html=1;" parent="1" vertex="1">
          <mxGeometry x="1424" y="440" width="120" height="80" as="geometry" />
        </mxCell>
        <mxCell id="qPTurpKYU6WXjvwjlFdN-17" value="Predication" style="text;html=1;strokeColor=none;fillColor=none;align=center;verticalAlign=middle;whiteSpace=wrap;rounded=0;" parent="1" vertex="1">
          <mxGeometry x="1424" y="531" width="117" height="30" as="geometry" />
        </mxCell>
        <mxCell id="qPTurpKYU6WXjvwjlFdN-22" value="" style="shape=image;verticalLabelPosition=bottom;labelBackgroundColor=default;verticalAlign=top;aspect=fixed;imageAspect=0;image=https://static.thenounproject.com/png/3406428-200.png;" parent="1" vertex="1">
          <mxGeometry x="1021" y="712" width="34" height="34" as="geometry" />
        </mxCell>
        <mxCell id="qPTurpKYU6WXjvwjlFdN-23" value="" style="shape=image;verticalLabelPosition=bottom;labelBackgroundColor=default;verticalAlign=top;aspect=fixed;imageAspect=0;image=https://static.thenounproject.com/png/341323-200.png;" parent="1" vertex="1">
          <mxGeometry x="989" y="750" width="34" height="34" as="geometry" />
        </mxCell>
        <mxCell id="qPTurpKYU6WXjvwjlFdN-24" value="" style="shape=image;verticalLabelPosition=bottom;labelBackgroundColor=default;verticalAlign=top;aspect=fixed;imageAspect=0;image=https://static.thenounproject.com/png/1657341-200.png;" parent="1" vertex="1">
          <mxGeometry x="965" y="707" width="39" height="39" as="geometry" />
        </mxCell>
        <mxCell id="qPTurpKYU6WXjvwjlFdN-25" value="" style="shape=image;verticalLabelPosition=bottom;labelBackgroundColor=default;verticalAlign=top;aspect=fixed;imageAspect=0;image=https://static.thenounproject.com/png/5298759-200.png;" parent="1" vertex="1">
          <mxGeometry x="959" y="769" width="25" height="25" as="geometry" />
        </mxCell>
        <mxCell id="qPTurpKYU6WXjvwjlFdN-26" value="" style="shape=image;verticalLabelPosition=bottom;labelBackgroundColor=default;verticalAlign=top;aspect=fixed;imageAspect=0;image=https://static.thenounproject.com/png/1003395-200.png;" parent="1" vertex="1">
          <mxGeometry x="955" y="791" width="61" height="61" as="geometry" />
        </mxCell>
        <mxCell id="qPTurpKYU6WXjvwjlFdN-27" value="" style="shape=image;verticalLabelPosition=bottom;labelBackgroundColor=default;verticalAlign=top;aspect=fixed;imageAspect=0;image=https://static.thenounproject.com/png/2139327-200.png;" parent="1" vertex="1">
          <mxGeometry x="1021" y="786" width="48" height="48" as="geometry" />
        </mxCell>
        <mxCell id="qPTurpKYU6WXjvwjlFdN-28" value="" style="shape=image;verticalLabelPosition=bottom;labelBackgroundColor=default;verticalAlign=top;aspect=fixed;imageAspect=0;image=https://static.thenounproject.com/png/1034913-200.png;" parent="1" vertex="1">
          <mxGeometry x="1023" y="742" width="49" height="49" as="geometry" />
        </mxCell>
        <mxCell id="qPTurpKYU6WXjvwjlFdN-29" value="" style="shape=image;verticalLabelPosition=bottom;labelBackgroundColor=default;verticalAlign=top;aspect=fixed;imageAspect=0;image=https://static.thenounproject.com/png/2356861-200.png;" parent="1" vertex="1">
          <mxGeometry x="1004" y="831" width="39" height="39" as="geometry" />
        </mxCell>
        <mxCell id="qPTurpKYU6WXjvwjlFdN-51" style="edgeStyle=orthogonalEdgeStyle;rounded=0;orthogonalLoop=1;jettySize=auto;html=1;entryX=0;entryY=0.477;entryDx=0;entryDy=0;entryPerimeter=0;curved=1;" parent="1" source="qPTurpKYU6WXjvwjlFdN-30" target="qPTurpKYU6WXjvwjlFdN-33" edge="1">
          <mxGeometry relative="1" as="geometry" />
        </mxCell>
        <mxCell id="qPTurpKYU6WXjvwjlFdN-52" style="edgeStyle=orthogonalEdgeStyle;rounded=0;orthogonalLoop=1;jettySize=auto;html=1;entryX=0;entryY=0.75;entryDx=0;entryDy=0;curved=1;" parent="1" source="qPTurpKYU6WXjvwjlFdN-30" target="qPTurpKYU6WXjvwjlFdN-47" edge="1">
          <mxGeometry relative="1" as="geometry" />
        </mxCell>
        <mxCell id="qPTurpKYU6WXjvwjlFdN-30" value="Model" style="icon;html=1;image=img/clipart/Gear_128x128.png" parent="1" vertex="1">
          <mxGeometry x="1219" y="751.5" width="91" height="79" as="geometry" />
        </mxCell>
        <mxCell id="qPTurpKYU6WXjvwjlFdN-33" value="" style="ellipse;whiteSpace=wrap;html=1;aspect=fixed;" parent="1" vertex="1">
          <mxGeometry x="1396" y="667" width="107" height="107" as="geometry" />
        </mxCell>
        <mxCell id="qPTurpKYU6WXjvwjlFdN-34" value="" style="shape=image;verticalLabelPosition=bottom;labelBackgroundColor=default;verticalAlign=top;aspect=fixed;imageAspect=0;image=https://static.thenounproject.com/png/3406428-200.png;" parent="1" vertex="1">
          <mxGeometry x="1457" y="688" width="34" height="34" as="geometry" />
        </mxCell>
        <mxCell id="qPTurpKYU6WXjvwjlFdN-35" value="" style="shape=image;verticalLabelPosition=bottom;labelBackgroundColor=default;verticalAlign=top;aspect=fixed;imageAspect=0;image=https://static.thenounproject.com/png/341323-200.png;" parent="1" vertex="1">
          <mxGeometry x="1446" y="719" width="34" height="34" as="geometry" />
        </mxCell>
        <mxCell id="qPTurpKYU6WXjvwjlFdN-36" value="" style="shape=image;verticalLabelPosition=bottom;labelBackgroundColor=default;verticalAlign=top;aspect=fixed;imageAspect=0;image=https://static.thenounproject.com/png/1657341-200.png;" parent="1" vertex="1">
          <mxGeometry x="1412" y="693" width="39" height="39" as="geometry" />
        </mxCell>
        <mxCell id="qPTurpKYU6WXjvwjlFdN-37" value="" style="shape=image;verticalLabelPosition=bottom;labelBackgroundColor=default;verticalAlign=top;aspect=fixed;imageAspect=0;image=https://static.thenounproject.com/png/5298759-200.png;" parent="1" vertex="1">
          <mxGeometry x="1416" y="738" width="25" height="25" as="geometry" />
        </mxCell>
        <mxCell id="qPTurpKYU6WXjvwjlFdN-42" value="" style="ellipse;whiteSpace=wrap;html=1;aspect=fixed;" parent="1" vertex="1">
          <mxGeometry x="1390.5" y="804.5" width="118" height="118" as="geometry" />
        </mxCell>
        <mxCell id="qPTurpKYU6WXjvwjlFdN-47" value="" style="shape=image;verticalLabelPosition=bottom;labelBackgroundColor=default;verticalAlign=top;aspect=fixed;imageAspect=0;image=https://static.thenounproject.com/png/1003395-200.png;" parent="1" vertex="1">
          <mxGeometry x="1394.5" y="813.5" width="61" height="61" as="geometry" />
        </mxCell>
        <mxCell id="qPTurpKYU6WXjvwjlFdN-48" value="" style="shape=image;verticalLabelPosition=bottom;labelBackgroundColor=default;verticalAlign=top;aspect=fixed;imageAspect=0;image=https://static.thenounproject.com/png/2139327-200.png;" parent="1" vertex="1">
          <mxGeometry x="1401" y="858.5" width="48" height="48" as="geometry" />
        </mxCell>
        <mxCell id="qPTurpKYU6WXjvwjlFdN-49" value="" style="shape=image;verticalLabelPosition=bottom;labelBackgroundColor=default;verticalAlign=top;aspect=fixed;imageAspect=0;image=https://static.thenounproject.com/png/1034913-200.png;" parent="1" vertex="1">
          <mxGeometry x="1452.5" y="815.5" width="49" height="49" as="geometry" />
        </mxCell>
        <mxCell id="qPTurpKYU6WXjvwjlFdN-50" value="" style="shape=image;verticalLabelPosition=bottom;labelBackgroundColor=default;verticalAlign=top;aspect=fixed;imageAspect=0;image=https://static.thenounproject.com/png/2356861-200.png;" parent="1" vertex="1">
          <mxGeometry x="1452.5" y="858.5" width="39" height="39" as="geometry" />
        </mxCell>
        <mxCell id="qPTurpKYU6WXjvwjlFdN-55" style="edgeStyle=orthogonalEdgeStyle;rounded=0;orthogonalLoop=1;jettySize=auto;html=1;curved=1;" parent="1" source="qPTurpKYU6WXjvwjlFdN-53" target="qPTurpKYU6WXjvwjlFdN-54" edge="1">
          <mxGeometry relative="1" as="geometry">
            <Array as="points">
              <mxPoint x="1074" y="1160" />
              <mxPoint x="1307" y="1160" />
            </Array>
          </mxGeometry>
        </mxCell>
        <mxCell id="qPTurpKYU6WXjvwjlFdN-60" style="edgeStyle=orthogonalEdgeStyle;rounded=0;orthogonalLoop=1;jettySize=auto;html=1;curved=1;entryX=0.5;entryY=1;entryDx=0;entryDy=0;endArrow=none;endFill=0;startArrow=classic;startFill=1;" parent="1" source="qPTurpKYU6WXjvwjlFdN-53" target="qPTurpKYU6WXjvwjlFdN-54" edge="1">
          <mxGeometry relative="1" as="geometry">
            <mxPoint x="1090" y="1369" as="targetPoint" />
            <Array as="points">
              <mxPoint x="1076" y="1350" />
              <mxPoint x="1307" y="1350" />
            </Array>
          </mxGeometry>
        </mxCell>
        <mxCell id="qPTurpKYU6WXjvwjlFdN-53" value="" style="icon;html=1;image=img/clipart/Gear_128x128.png" parent="1" vertex="1">
          <mxGeometry x="1028" y="1227" width="91" height="79" as="geometry" />
        </mxCell>
        <mxCell id="qPTurpKYU6WXjvwjlFdN-54" value="" style="shape=image;verticalLabelPosition=bottom;labelBackgroundColor=default;verticalAlign=top;aspect=fixed;imageAspect=0;image=https://static.thenounproject.com/png/5737929-200.png;" parent="1" vertex="1">
          <mxGeometry x="1261" y="1220.75" width="91.5" height="91.5" as="geometry" />
        </mxCell>
        <mxCell id="qPTurpKYU6WXjvwjlFdN-58" value="Rewards&lt;br&gt;Observation" style="text;html=1;strokeColor=none;fillColor=none;align=center;verticalAlign=middle;whiteSpace=wrap;rounded=0;" parent="1" vertex="1">
          <mxGeometry x="1134" y="1376" width="117" height="30" as="geometry" />
        </mxCell>
        <mxCell id="qPTurpKYU6WXjvwjlFdN-59" value="Fraud ( Yes vs No)" style="text;html=1;strokeColor=none;fillColor=none;align=center;verticalAlign=middle;whiteSpace=wrap;rounded=0;" parent="1" vertex="1">
          <mxGeometry x="1140" y="1131" width="117" height="30" as="geometry" />
        </mxCell>
      </root>
    </mxGraphModel>
  </diagram>
  <diagram id="Ybywd6OcZWK3bE2XNhuJ" name="Training">
    <mxGraphModel dx="1434" dy="796" grid="0" gridSize="10" guides="1" tooltips="1" connect="1" arrows="1" fold="1" page="1" pageScale="1" pageWidth="850" pageHeight="1100" math="0" shadow="0">
      <root>
        <mxCell id="0" />
        <mxCell id="1" parent="0" />
        <mxCell id="ixMvdOwa8xtDi1-ExMdp-23" style="edgeStyle=orthogonalEdgeStyle;rounded=0;orthogonalLoop=1;jettySize=auto;html=1;exitX=0.485;exitY=0.994;exitDx=0;exitDy=0;exitPerimeter=0;startArrow=classic;startFill=1;" edge="1" parent="1" source="ixMvdOwa8xtDi1-ExMdp-18" target="ixMvdOwa8xtDi1-ExMdp-20">
          <mxGeometry relative="1" as="geometry" />
        </mxCell>
        <mxCell id="ixMvdOwa8xtDi1-ExMdp-18" value="" style="rounded=1;whiteSpace=wrap;html=1;sketch=1;curveFitting=1;jiggle=2;" vertex="1" parent="1">
          <mxGeometry x="110" y="284" width="600" height="135" as="geometry" />
        </mxCell>
        <mxCell id="ixMvdOwa8xtDi1-ExMdp-21" style="edgeStyle=orthogonalEdgeStyle;rounded=0;orthogonalLoop=1;jettySize=auto;html=1;entryX=0;entryY=0.5;entryDx=0;entryDy=0;startArrow=classic;startFill=1;" edge="1" parent="1" source="ixMvdOwa8xtDi1-ExMdp-1" target="ixMvdOwa8xtDi1-ExMdp-3">
          <mxGeometry relative="1" as="geometry" />
        </mxCell>
        <mxCell id="ixMvdOwa8xtDi1-ExMdp-1" value="&lt;b&gt;&lt;font style=&quot;font-size: 18px;&quot;&gt;Model&lt;/font&gt;&lt;/b&gt;" style="rounded=1;whiteSpace=wrap;html=1;fillColor=#fff2cc;strokeColor=#d6b656;sketch=1;curveFitting=1;jiggle=2;" vertex="1" parent="1">
          <mxGeometry x="160" y="333" width="120" height="57" as="geometry" />
        </mxCell>
        <mxCell id="ixMvdOwa8xtDi1-ExMdp-19" style="edgeStyle=orthogonalEdgeStyle;rounded=0;orthogonalLoop=1;jettySize=auto;html=1;entryX=0.483;entryY=0;entryDx=0;entryDy=0;entryPerimeter=0;startArrow=classic;startFill=1;" edge="1" parent="1" source="ixMvdOwa8xtDi1-ExMdp-2" target="ixMvdOwa8xtDi1-ExMdp-18">
          <mxGeometry relative="1" as="geometry" />
        </mxCell>
        <mxCell id="ixMvdOwa8xtDi1-ExMdp-2" value="&lt;b&gt;&lt;font style=&quot;font-size: 18px;&quot;&gt;Examples&lt;/font&gt;&lt;/b&gt;" style="rounded=1;whiteSpace=wrap;html=1;fillColor=#dae8fc;strokeColor=#6c8ebf;sketch=1;curveFitting=1;jiggle=2;" vertex="1" parent="1">
          <mxGeometry x="340" y="168" width="120" height="57" as="geometry" />
        </mxCell>
        <mxCell id="ixMvdOwa8xtDi1-ExMdp-22" style="edgeStyle=orthogonalEdgeStyle;rounded=0;orthogonalLoop=1;jettySize=auto;html=1;entryX=0;entryY=0.5;entryDx=0;entryDy=0;startArrow=classic;startFill=1;" edge="1" parent="1" source="ixMvdOwa8xtDi1-ExMdp-3" target="ixMvdOwa8xtDi1-ExMdp-8">
          <mxGeometry relative="1" as="geometry" />
        </mxCell>
        <mxCell id="ixMvdOwa8xtDi1-ExMdp-3" value="&lt;b&gt;&lt;font style=&quot;font-size: 18px;&quot;&gt;Training&lt;/font&gt;&lt;/b&gt;" style="rounded=1;whiteSpace=wrap;html=1;fillColor=#fff2cc;strokeColor=#d6b656;sketch=1;curveFitting=1;jiggle=2;" vertex="1" parent="1">
          <mxGeometry x="340" y="333" width="120" height="57" as="geometry" />
        </mxCell>
        <mxCell id="ixMvdOwa8xtDi1-ExMdp-26" style="edgeStyle=orthogonalEdgeStyle;rounded=0;orthogonalLoop=1;jettySize=auto;html=1;entryX=0;entryY=0.5;entryDx=0;entryDy=0;exitX=0;exitY=0.5;exitDx=0;exitDy=0;" edge="1" parent="1" source="ixMvdOwa8xtDi1-ExMdp-4" target="ixMvdOwa8xtDi1-ExMdp-2">
          <mxGeometry relative="1" as="geometry">
            <Array as="points">
              <mxPoint x="315" y="700" />
              <mxPoint x="315" y="715" />
              <mxPoint x="80" y="715" />
              <mxPoint x="80" y="197" />
            </Array>
          </mxGeometry>
        </mxCell>
        <mxCell id="ixMvdOwa8xtDi1-ExMdp-27" value="&lt;font style=&quot;font-size: 18px;&quot;&gt;&lt;b&gt;Re-Training&lt;/b&gt;&lt;/font&gt;" style="edgeLabel;html=1;align=center;verticalAlign=middle;resizable=0;points=[];" vertex="1" connectable="0" parent="ixMvdOwa8xtDi1-ExMdp-26">
          <mxGeometry x="-0.0569" y="2" relative="1" as="geometry">
            <mxPoint x="7" y="-12" as="offset" />
          </mxGeometry>
        </mxCell>
        <mxCell id="ixMvdOwa8xtDi1-ExMdp-4" value="&lt;font style=&quot;font-size: 18px;&quot;&gt;Use on sample users &amp;amp; then all the users&lt;/font&gt;" style="rounded=1;whiteSpace=wrap;html=1;fillColor=#e1d5e7;strokeColor=#9673a6;sketch=1;curveFitting=1;jiggle=2;" vertex="1" parent="1">
          <mxGeometry x="304" y="672" width="198" height="55" as="geometry" />
        </mxCell>
        <mxCell id="ixMvdOwa8xtDi1-ExMdp-8" value="&lt;font style=&quot;font-size: 18px;&quot;&gt;&lt;b&gt;Validation&lt;/b&gt;&lt;/font&gt;" style="rounded=1;whiteSpace=wrap;html=1;fillColor=#fff2cc;strokeColor=#d6b656;sketch=1;curveFitting=1;jiggle=2;" vertex="1" parent="1">
          <mxGeometry x="520" y="332" width="120" height="58" as="geometry" />
        </mxCell>
        <mxCell id="ixMvdOwa8xtDi1-ExMdp-31" style="edgeStyle=orthogonalEdgeStyle;rounded=0;orthogonalLoop=1;jettySize=auto;html=1;" edge="1" parent="1" source="ixMvdOwa8xtDi1-ExMdp-20" target="ixMvdOwa8xtDi1-ExMdp-30">
          <mxGeometry relative="1" as="geometry" />
        </mxCell>
        <mxCell id="ixMvdOwa8xtDi1-ExMdp-20" value="&lt;font style=&quot;font-size: 18px;&quot;&gt;&lt;b&gt;Test&lt;/b&gt;&lt;/font&gt;" style="rounded=1;whiteSpace=wrap;html=1;fillColor=#dae8fc;strokeColor=#6c8ebf;sketch=1;curveFitting=1;jiggle=2;" vertex="1" parent="1">
          <mxGeometry x="308.5" y="481" width="183" height="44" as="geometry" />
        </mxCell>
        <mxCell id="ixMvdOwa8xtDi1-ExMdp-25" value="&lt;font style=&quot;font-size: 18px;&quot;&gt;&lt;b&gt;Learning&lt;/b&gt;&lt;/font&gt;" style="text;html=1;strokeColor=none;fillColor=none;align=center;verticalAlign=middle;whiteSpace=wrap;rounded=0;" vertex="1" parent="1">
          <mxGeometry x="377" y="295" width="60" height="30" as="geometry" />
        </mxCell>
        <mxCell id="ixMvdOwa8xtDi1-ExMdp-29" style="edgeStyle=orthogonalEdgeStyle;rounded=0;orthogonalLoop=1;jettySize=auto;html=1;startArrow=classic;startFill=1;" edge="1" parent="1" source="ixMvdOwa8xtDi1-ExMdp-28" target="ixMvdOwa8xtDi1-ExMdp-2">
          <mxGeometry relative="1" as="geometry" />
        </mxCell>
        <mxCell id="ixMvdOwa8xtDi1-ExMdp-28" value="&lt;b&gt;&lt;font style=&quot;font-size: 18px;&quot;&gt;Got Good Question ?&amp;nbsp;&lt;/font&gt;&lt;/b&gt;" style="rounded=1;whiteSpace=wrap;html=1;fillColor=#dae8fc;strokeColor=#6c8ebf;sketch=1;curveFitting=1;jiggle=2;" vertex="1" parent="1">
          <mxGeometry x="303" y="74" width="194" height="51" as="geometry" />
        </mxCell>
        <mxCell id="ixMvdOwa8xtDi1-ExMdp-32" style="edgeStyle=orthogonalEdgeStyle;rounded=0;orthogonalLoop=1;jettySize=auto;html=1;entryX=0.468;entryY=0.025;entryDx=0;entryDy=0;entryPerimeter=0;" edge="1" parent="1" source="ixMvdOwa8xtDi1-ExMdp-30" target="ixMvdOwa8xtDi1-ExMdp-4">
          <mxGeometry relative="1" as="geometry" />
        </mxCell>
        <mxCell id="ixMvdOwa8xtDi1-ExMdp-30" value="&lt;span style=&quot;font-size: 18px;&quot;&gt;Make it production ready&lt;/span&gt;" style="rounded=1;whiteSpace=wrap;html=1;fillColor=#e1d5e7;strokeColor=#9673a6;sketch=1;curveFitting=1;jiggle=2;" vertex="1" parent="1">
          <mxGeometry x="305" y="567" width="190" height="63" as="geometry" />
        </mxCell>
      </root>
    </mxGraphModel>
  </diagram>
</mxfile>
